<?xml version="1.0" encoding="utf-8"?>
<!-- Generator: Adobe Illustrator 17.1.0, SVG Export Plug-In . SVG Version: 6.00 Build 0)  -->
<!DOCTYPE svg PUBLIC "-//W3C//DTD SVG 1.1//EN" "http://www.w3.org/Graphics/SVG/1.1/DTD/svg11.dtd">
<svg version="1.1" id="Layer_1" xmlns="http://www.w3.org/2000/svg" xmlns:xlink="http://www.w3.org/1999/xlink" x="0px" y="0px"
	 viewBox="20.968 119.372 1222.531 276.88" enable-background="new 20.968 119.372 1222.531 276.88" xml:space="preserve">
<g>
	<path fill="#000" d="M711.671,269.612h-13.296v23.6h14.957c6.315,0,11.966-5.318,11.966-11.966
		C725.299,274.598,717.987,269.612,711.671,269.612z"/>
	<polygon fill="#000" points="148.273,278.586 173.202,278.586 160.571,251.331 	"/>
	<path fill="#000" d="M582.705,243.021h-22.602c-1.662,0-2.991-0.997-3.324-2.327l-6.98-21.605c-0.997-2.992-5.318-2.992-6.315,0
		l-6.98,21.605c-0.665,1.33-1.994,2.327-3.324,2.327h-22.602c-3.324,0-4.653,3.989-1.994,5.983l18.281,13.296
		c1.33,0.665,1.662,2.327,1.33,3.656l-6.98,21.605c-0.997,2.991,2.659,5.651,5.318,3.656l18.281-13.296
		c1.33-0.997,2.659-0.997,3.989,0l18.281,13.296c2.659,1.994,6.315-0.665,5.318-3.656l-6.98-21.605c-0.332-1.33,0-2.659,1.33-3.656
		l18.281-13.296C587.69,247.01,586.361,243.021,582.705,243.021z"/>
	<path fill="#000" d="M722.64,236.041c0-6.648-5.318-11.301-11.634-11.301h-12.963v23.267h12.963
		C717.322,248.007,722.64,242.689,722.64,236.041z"/>
	<path fill="#000" d="M1213.91,119.372H50.883c-16.619,0-29.915,13.628-29.915,29.915v217.05
		c0,16.619,13.628,29.915,29.915,29.915h1162.695c16.619,0,29.915-13.628,29.915-29.915v-217.05
		C1243.825,133,1230.53,119.372,1213.91,119.372z M218.407,316.146c-0.997,1.33-2.659,1.994-4.321,1.994h-18.281
		c-3.656,0-5.651-1.33-7.313-4.986l-5.651-11.966h-42.878l-5.651,12.298c-1.33,2.992-4.321,4.986-7.645,4.986h-18.281
		c-1.994,0-3.324-0.665-4.321-1.994c-0.997-1.33-0.997-2.992-0.332-4.653l51.853-111.683c0.665-1.662,2.659-2.659,4.321-2.659h1.662
		c1.662,0,3.656,0.997,4.321,2.659l52.85,111.35C219.404,313.155,219.404,314.817,218.407,316.146z M302.833,221.748
		c0,2.659-2.327,4.986-4.986,4.986H275.91v87.086c0,2.659-2.327,4.986-4.986,4.986h-19.943c-2.659,0-4.986-2.327-4.986-4.986
		v-86.753h-21.938c-2.659,0-4.986-2.327-4.986-4.986v-17.949c0-2.659,2.327-4.986,4.986-4.986h73.458
		c2.659,0,4.653,2.327,5.318,4.653V221.748z M424.82,315.814c-0.665,1.33-2.327,2.327-4.321,2.327h-22.935
		c-1.662,0-3.656-0.997-4.321-2.327l-20.276-31.245l-19.943,31.577c-0.665,0.665-1.994,2.327-4.321,2.327h-22.935
		c-1.994,0-3.656-0.997-4.653-2.659c-0.997-1.33-0.665-3.324,0.332-4.653l34.236-53.847l-32.906-50.855
		c-0.997-1.662-0.997-3.656-0.332-4.986c0.665-1.33,2.327-2.327,4.321-2.327h24.264c1.662,0,3.324,1.33,3.989,2.327l17.617,28.585
		l17.949-28.585c0.332-0.997,1.994-2.327,3.989-2.327h24.264c1.994,0,3.656,0.997,4.653,2.659c0.997,1.33,0.665,3.324-0.332,4.653
		l-32.906,50.855l34.236,53.515C425.485,312.49,425.485,314.484,424.82,315.814z M617.938,292.879c0,3.989-1.994,7.313-5.318,9.307
		l-60.495,34.901c-3.324,1.994-7.312,1.994-10.636,0l-60.162-34.901c-3.324-1.994-5.318-5.318-5.318-9.307V223.41
		c0-3.989,1.994-7.313,5.318-9.307l60.162-34.901c3.324-1.994,7.313-1.994,10.636,0l60.495,34.568
		c3.324,1.994,5.318,5.651,5.318,9.307V292.879z M716.989,318.805h-41.216c-2.659,0-4.986-2.327-4.986-4.986V204.131
		c0-2.659,2.327-4.986,4.986-4.986h38.557c20.94,0,37.227,14.293,37.227,32.574c0,11.301-8.642,20.276-17.284,25.926
		c8.642,4.321,19.943,12.631,20.608,27.588C754.882,304.18,738.262,318.805,716.989,318.805z M882.519,272.271
		c0,26.591-22.27,47.864-49.193,47.864s-48.861-21.605-48.861-47.864v-68.14c0-2.659,2.327-4.986,4.986-4.986h20.276
		c2.659,0,4.986,2.327,4.986,4.986v67.143c0,10.969,7.977,19.279,18.614,19.279c10.636,0,18.946-8.31,18.946-19.279v-67.143
		c0-2.659,2.327-4.986,4.986-4.986h20.276c2.659,0,4.986,2.327,4.986,4.986V272.271z M951.656,313.82
		c0,2.659-2.327,4.986-4.986,4.986h-19.943c-2.659,0-4.986-2.327-4.986-4.986V204.131c0-2.659,2.327-4.986,4.986-4.986h19.943
		c2.659,0,4.986,2.327,4.986,4.986V313.82z M1069.654,313.82c0,2.659-2.327,4.986-4.986,4.986h-62.157
		c-2.659,0-4.986-2.327-4.986-4.986V204.131c0-2.659,2.327-4.986,4.986-4.986h19.611c2.659,0,4.986,2.327,4.986,4.986v86.421h37.56
		c2.659,0,4.653,2.327,4.986,4.986V313.82z M1157.737,221.748c0,2.659-2.327,4.986-4.986,4.986h-21.938v87.086
		c0,2.659-2.327,4.986-4.986,4.986h-19.943c-2.659,0-4.986-2.327-4.986-4.986v-86.753h-21.938c-2.659,0-4.986-2.327-4.986-4.986
		v-17.949c0-2.659,2.327-4.986,4.986-4.986h73.458c2.659,0,4.986,2.327,5.318,4.653V221.748z"/>
</g>
</svg>
