<svg xmlns="http://www.w3.org/2000/svg" viewBox="0 0 243.1 221.3"><path d="m241.2 109.1-22.5-18.4L223.1 8c.4-7.2-8.6-10.9-13.3-5.4l-63.1 73c-6.6 1.1-15 2-25.2 2s-18.6-.9-25.2-2L33.2 2.7C28.5-2.8 19.5.8 19.9 8.1l4.4 82.7-22.4 18.3c-3.1 2.5-2.2 7.4 1.6 8.7l20.5 6.7-14 15.1c-2.7 3-1.1 7.8 2.9 8.4l23 3.5-7.2 11.4c-2.1 3.4.3 7.8 4.3 7.7l22.9-.3-2.7 8.2c-1.2 3.6 1.9 7.2 5.6 6.6l11-1.9c11.7-2 23.2 4.6 27.3 15.7s4.2 11.1 6.3 14.7l1 1.5c.1.2.3.4.4.6 2.9 3.8 7.2 5.6 11.5 5.6h10.1c4.3 0 8.6-1.9 11.5-5.6l1.4-2.1c2.1-3.6 4.1-8.8 6.3-14.7 4.1-11.1 15.6-17.7 27.3-15.7l11 1.9c3.8.6 6.8-2.9 5.6-6.6l-2.7-8.2 22.9.3c4 0 6.5-4.3 4.3-7.7l-7.2-11.4 23-3.5c4-.6 5.7-5.4 2.9-8.4l-14-15.1 20.5-6.7c3.8-1.2 4.7-6.2 1.6-8.7Z" style="fill:#eacb2a"/></svg>