<svg xmlns="http://www.w3.org/2000/svg" viewBox="0 0 243.1 221.3"><path d="m56.1 109.6-3-20.8c-.9-6.2 1-12.1 4.4-13.6 2.8-1.3 6.7.7 10.8 5.5l9.1 10.5c1.1 1.3 3 1.4 4.2.3 1.3-1.1 1.4-3 .3-4.2L46.6 46.2c-.9-1-2.3-1.3-3.5-.8-1.2.6-1.9 1.8-1.7 3.2l5.9 41.1 3 20.8c.2 1.5 1.5 2.6 3 2.6h.4c1.6-.2 2.8-1.8 2.5-3.4ZM200.1 45.4c-1.2-.6-2.6-.2-3.5.8l-35.3 41.1c-1.1 1.3-.9 3.2.3 4.2 1.3 1.1 3.2.9 4.2-.3l9.1-10.5c4.1-4.7 8-6.7 10.8-5.5 3.4 1.5 5.2 7.4 4.4 13.6s-3 20.8-3 20.8c-.2 1.6.9 3.2 2.5 3.4h.4c1.5 0 2.8-1.1 3-2.6l3-20.8 5.9-41.1c.2-1.3-.5-2.6-1.7-3.2ZM185.3 121.6c-1.8 0-9.8 1.3-12.6-5-7.9-17.7-32.8-26.5-51.1-26.5s-43.3 8.8-51.1 26.5c-2.8 6.3-10.8 4.9-12.6 5-1.6 0-2.9 1.5-2.7 3 1.1 7.6 4.9 17.3 8.3 24.8 5.6 12.4 28.7 11.8 35.4 25.9 3.3 6.9 6.7 18.9 10.7 24 2.8 3.5 7.3 3.8 12 3.6 4.7.1 9.2-.1 12-3.6 4.1-5.1 7.5-17.1 10.7-24 6.8-14.2 29.8-13.5 35.4-25.9 3.4-7.5 7.3-17.2 8.3-24.8.2-1.5-1-2.9-2.7-3Zm-87.9 8.8c-2.4 6.5-14 19.8-20.7 11.2-4.5-5.8-4.9-10.9-.9-17.4 3.7-6.1 11.8-11.3 16.5-10.3 7.6 1.7 7.6 9.8 5.1 16.5Zm30.4 4.2c.4.1.8.1 1.2 0 .9-.3 1.6-1.3 2.3-3.1-.1 9.6-1 16.4-1.9 22.4-.2 1.8-.5 3.5-.7 5.3-.8-1.1-1.6-1.6-2.4-2.1-.1 0-.3-.2-.5-.3.2-9.2 1.1-16.1 1.9-22.3Zm-13.7 0c.4.1.8.1 1.2 0 .8 6.1 1.7 13.1 1.9 22.3-.2 0-.3.2-.5.3-.8.5-1.7 1-2.4 2.1-.2-1.8-.4-3.5-.7-5.3-.8-6.1-1.7-12.9-1.9-22.4.7 1.8 1.5 2.8 2.3 3.1Zm17.2 50.2c0 5.4-4.4 9.8-9.8 9.8s-9.8-4.4-9.8-9.8v-5.6c0-.4.3-.8.7-.8 1.6-.2 2.8-.9 3.7-2.2 1.4-2.1 3.9-2.9 5.4-.7 1.5-2.2 4-1.3 5.4.7.8 1.2 2.1 2 3.7 2.2.4 0 .7.4.7.8v5.6Zm35-43.2c-6.6 8.6-18.3-4.7-20.7-11.2-2.5-6.7-2.5-14.8 5.1-16.5 4.7-1.1 12.8 4.2 16.5 10.3 4 6.5 3.6 11.6-.9 17.4Z"/></svg>