<?xml version="1.0" standalone="no"?>
<!DOCTYPE svg PUBLIC "-//W3C//DTD SVG 20010904//EN"
 "http://www.w3.org/TR/2001/REC-SVG-20010904/DTD/svg10.dtd">
<svg version="1.0" xmlns="http://www.w3.org/2000/svg"
 width="600.000000pt" height="600.000000pt" viewBox="0 0 600.000000 600.000000"
 preserveAspectRatio="xMidYMid meet">
<metadata>
Created by potrace 1.14, written by Peter Selinger 2001-2017
</metadata>
<g transform="translate(0.000000,600.000000) scale(0.100000,-0.100000)"
fill="#000000" stroke="none">
<path d="M656 5665 c-21 -7 -51 -26 -67 -41 -30 -28 -61 -109 -55 -141 2 -10
7 -83 11 -163 4 -80 8 -170 10 -200 2 -30 6 -113 10 -185 3 -71 8 -159 10
-195 8 -125 15 -246 20 -360 3 -63 7 -149 10 -190 2 -41 7 -127 10 -190 3 -63
8 -142 10 -175 2 -33 7 -121 10 -195 4 -74 9 -138 11 -142 3 -4 1 -8 -4 -8 -4
0 -17 -8 -28 -18 -20 -18 -62 -53 -349 -286 -93 -76 -176 -146 -183 -154 -35
-45 -31 -132 9 -168 10 -9 135 -55 278 -102 l260 -87 -28 -33 c-27 -30 -143
-156 -269 -291 -66 -70 -81 -117 -56 -172 28 -62 41 -67 284 -103 19 -3 78
-12 130 -20 52 -8 113 -18 135 -21 54 -7 87 -14 91 -18 2 -1 -37 -67 -87 -145
-49 -78 -92 -156 -96 -173 -8 -40 21 -101 58 -123 31 -18 115 -20 469 -12 69
1 130 1 137 -2 8 -2 0 -36 -23 -105 -39 -116 -42 -149 -15 -193 29 -48 88 -65
171 -48 36 8 83 16 105 19 22 3 47 8 55 10 8 2 33 6 55 10 34 5 201 34 285 49
14 2 34 5 45 5 45 2 48 14 21 85 -31 81 -111 232 -136 256 -3 3 -20 25 -39 48
-29 38 -32 46 -19 58 13 13 22 8 72 -43 139 -139 272 -393 416 -792 140 -389
202 -491 340 -559 54 -26 57 -27 265 -27 l210 0 67 33 c42 20 82 50 109 80 41
46 103 158 138 250 10 26 21 56 26 67 4 11 9 25 11 30 6 20 125 332 155 405
65 157 159 332 229 425 8 11 43 49 78 84 47 49 65 62 74 53 13 -13 1 -43 -35
-83 -72 -80 -201 -344 -176 -360 6 -3 45 -11 87 -17 42 -6 86 -13 97 -16 11
-2 40 -7 65 -11 25 -4 54 -9 65 -11 54 -10 134 -24 170 -30 22 -3 67 -11 100
-18 94 -19 160 7 183 73 12 33 8 55 -28 169 -17 51 -30 96 -30 100 0 5 42 7
93 6 50 -2 181 -3 289 -4 223 -1 242 4 276 67 27 50 15 84 -82 241 l-94 151
36 6 c20 4 48 8 62 11 14 2 43 6 65 9 52 8 322 50 389 61 43 7 65 22 86 57 31
50 23 113 -17 155 -10 10 -65 69 -123 131 -58 63 -126 137 -152 164 -27 28
-48 55 -48 59 0 4 107 41 238 84 265 85 285 94 308 130 44 67 24 125 -69 201
-40 32 -74 60 -77 63 -5 5 -272 223 -372 304 l-48 38 5 92 c2 50 6 129 9 176
3 47 8 135 11 195 3 61 8 148 10 195 10 183 16 288 20 370 3 47 7 132 10 189
3 58 8 145 11 195 6 117 12 237 19 351 16 297 17 276 -10 331 -29 59 -79 92
-149 99 -86 9 -112 -10 -273 -199 -80 -94 -151 -175 -157 -181 -6 -5 -90 -102
-187 -215 -294 -342 -523 -608 -600 -694 -19 -23 -107 -124 -194 -226 -215
-249 -216 -250 -250 -286 -26 -27 -40 -32 -105 -39 -41 -5 -82 -10 -90 -11
-136 -26 -755 -25 -885 1 -11 2 -40 7 -65 10 -80 9 -95 14 -113 37 -11 13 -31
37 -46 53 -14 17 -82 95 -151 175 -69 80 -137 159 -151 175 -15 17 -53 62 -86
100 -33 39 -126 147 -208 240 -81 94 -157 181 -168 195 -12 14 -78 90 -147
169 -69 80 -172 199 -229 265 -57 67 -124 145 -150 175 -25 29 -55 63 -66 76
-11 12 -44 50 -74 84 -29 34 -68 69 -85 78 -40 21 -101 24 -150 8z m4390
-1187 c3 -10 3 -49 -1 -86 -3 -37 -8 -94 -10 -127 -3 -33 -7 -71 -10 -85 -3
-14 -7 -59 -10 -100 -3 -41 -8 -91 -10 -110 -2 -19 -6 -64 -10 -100 -11 -122
-16 -145 -32 -157 -22 -17 -64 -16 -88 1 -28 19 -170 71 -233 86 -70 16 -90
43 -68 92 34 75 374 604 396 615 28 14 67 -1 76 -29z m-3813 -283 c108 -173
197 -324 197 -334 0 -22 -44 -61 -69 -61 -33 0 -170 -49 -251 -90 -63 -31 -95
-5 -104 85 -4 33 -9 78 -11 100 -4 41 -12 120 -20 210 -7 71 -13 142 -20 203
-3 28 -7 75 -10 103 -7 67 12 99 58 99 33 0 37 -5 230 -315z m924 -1464 c26
-12 52 -35 70 -62 26 -39 28 -48 28 -153 l0 -111 -105 1 c-136 1 -172 18 -216
98 -44 79 -8 182 78 225 53 26 90 26 145 2z m1819 0 c133 -60 135 -239 4 -306
-49 -25 -237 -29 -243 -5 -2 9 -3 57 -2 108 3 113 29 167 97 201 53 26 90 26
144 2z m-750 -1753 c30 -29 19 -65 -52 -170 -93 -138 -151 -168 -243 -127 -34
15 -53 37 -111 126 -81 123 -87 152 -38 179 9 5 110 9 223 9 175 -1 208 -3
221 -17z"/>
</g>
</svg>
