<?xml version="1.0" standalone="no"?>
<!DOCTYPE svg PUBLIC "-//W3C//DTD SVG 1.1//EN" "http://www.w3.org/Graphics/SVG/1.1/DTD/svg11.dtd" >
<svg xmlns="http://www.w3.org/2000/svg">
<metadata>
This is a custom SVG font generated by IcoMoon.
<iconset grid="20"></iconset>
</metadata>
<defs>
<font id="fox-icons" horiz-adv-x="640" >
<font-face units-per-em="640" ascent="608" descent="-32" />
<missing-glyph horiz-adv-x="640" />
<glyph class="hidden" unicode="&#xf000;" d="M0,608L 640 -32L0 -32 z" horiz-adv-x="0" />
<glyph unicode="&#xe000;" d="M 405.611,343.488L 375.509,373.632L 320,318.165L 264.832,373.333L 234.709,343.189L 289.856,288.043L 234.411,232.533L 264.533,202.411L 320,257.899L 375.211,202.731L 405.333,232.853L 350.123,288.043 	z"  />
<glyph unicode="&#xe001;" d="M 442.048,458.667L 262.549,458.667L 352.299,303.189 		zM 262.549,117.333L 442.048,117.333L 352.299,272.811 		zM 249.365,124.949L 339.136,280.405L 159.616,280.384 		zM 159.616,295.616L 339.136,295.595L 249.365,451.051 		zM 398.187,295.595L 480.363,295.616L 480.384,458.667 		zM 398.187,280.405L 480.384,117.333L 480.363,280.384 		z"  />
<glyph unicode="&#xe002;" d="M 490.667,393.856c-12.565-5.568-26.048-9.344-40.213-11.029c 14.464,8.661, 25.557,22.4, 30.784,38.741
	c-13.525-8.021-28.523-13.845-44.48-17.003c-12.779,13.611-30.976,22.123-51.115,22.123c-38.677,0-70.037-31.36-70.037-70.016
	c0-5.483, 0.619-10.837, 1.813-15.957c-58.197,2.923-109.803,30.805-144.341,73.173c-6.037-10.347-9.472-22.379-9.472-35.2
	c0-24.299, 12.352-45.739, 31.147-58.283c-11.477,0.363-22.272,3.52-31.723,8.768c0-0.299,0-0.576,0-0.875c0-33.92, 24.149-62.229, 56.171-68.672
	C 213.333,258.005, 207.147,257.131, 200.768,257.131c-4.523,0-8.896,0.448-13.184,1.259c 8.917-27.819, 34.773-48.064, 65.408-48.64
	c-23.957-18.773-54.165-29.973-86.976-29.973c-5.653,0-11.221,0.341-16.704,0.981c 30.997-19.861, 67.797-31.467, 107.349-31.467
	c 128.811,0, 199.253,106.709, 199.253,199.253c0,3.029-0.064,6.059-0.213,9.067C 469.397,367.488, 481.28,379.819, 490.667,393.856z"  />
<glyph unicode="&#xe003;" d="M 250.048,462.080l 81.365-5.504l-2.368-68.608c 65.003-48.619, 104.32-24.107, 128.085-22.848
	c 26.731,1.429, 15.424-52.843, 28.331-62.251c 24.619-17.963, 6.869-49.728, 2.325-61.013c-38.848-49.387-113.557,2.389-99.605-124.864
	c 1.429-10.453-58.752,8.384-61.739,18.496c-3.008,10.133-46.315,175.765-98.112,88.107c-32.832,6.208-29.077,47.637-40.32,52.608
	c-11.243,4.971-46.165,21.269-46.165,52.139l 97.109-9.003L 250.048,462.080z"  />
<glyph unicode="&#xe004;" d="M 320,433.109L 362.88,346.261L 458.667,332.331L 389.333,264.747L 405.717,169.344L 320,214.379L 234.283,169.344L 250.667,264.747L 181.333,332.331L 277.163,346.261 	z"  />
<glyph unicode="&#xe005;" d="M 372.245,253.525c 9.707,14.123, 15.467,31.125, 15.467,49.493c0,48.341-39.317,87.637-87.595,87.637s-87.595-39.296-87.595-87.637
		c0-48.299, 39.296-87.573, 87.595-87.573c 18.368,0, 35.413,5.76, 49.536,15.467l 55.232-55.296l 22.635,22.613L 372.245,253.525z M 339.477,263.808
		l-0.128-0.128c-10.091-10.048-23.957-16.256-39.253-16.256c-30.677,0-55.595,24.96-55.595,55.573c0,30.677, 24.917,55.637, 55.595,55.637
		s 55.595-24.96, 55.595-55.637C 355.691,287.723, 349.504,273.899, 339.477,263.808z"  />
<glyph unicode="&#xe006;" d="M 256,416L 384,416L 384,309.333L 405.333,309.333L 405.333,437.333L 234.667,437.333L 234.667,309.333L 256,309.333 		zM 149.333,288L 149.333,160L 192,160L 192,245.333L 448,245.333L 448,160L 490.667,160L 490.667,288 		zM 213.333,224L 426.667,224L 426.667,138.667L 213.333,138.667zM 277.333,394.667L 362.667,394.667L 362.667,373.333L 277.333,373.333zM 277.333,352L 362.667,352L 362.667,330.667L 277.333,330.667z"  />
<glyph unicode="&#xe007;" d="M 384,330.667L 320,416L 256,330.667L 298.667,330.667L 298.667,160L 341.333,160L 341.333,330.667 		z"  />
<glyph unicode="&#xe008;" d="M 362.667,224L 448,288L 362.667,352L 362.667,309.333L 192,309.333L 192,266.667L 362.667,266.667 		z"  />
<glyph unicode="&#xe009;" d="M 277.333,352L 192,288L 277.333,224L 277.333,266.667L 448,266.667L 448,309.333L 277.333,309.333 		z"  />
<glyph unicode="&#xe00a;" d="M 384,245.333L 320,160L 256,245.333L 298.667,245.333L 298.667,416L 341.333,416L 341.333,245.333 		z"  />
<glyph unicode="&#xe00b;" d="M 405.333,309.355L 341.333,309.355L 341.333,373.355L 298.667,373.355L 298.667,309.355L 234.667,309.355L 234.667,266.688L 298.667,266.688L 298.667,202.688L 341.333,202.688L 341.333,266.688L 405.333,266.688 	z"  />
<glyph unicode="&#xe00c;" d="M 349.952,437.333L 349.952,437.461 l-59.925,0 L 290.027,437.333 C 257.749,436.693, 234.667,431.211, 234.667,394.667l0-213.333 c0-36.544, 23.083-42.005, 55.381-42.667l0-0.128 l 59.925,0 L 349.973,138.667 
		C 382.251,139.328, 405.333,144.789, 405.333,181.333L 405.333,394.667 C 405.333,431.211, 382.251,436.693, 349.952,437.333z M 298.667,410.667l 42.667,0 l0-10.667 l-42.667,0 L 298.667,410.667 z M 341.333,160l-42.667,0 l0,21.333 l 42.667,0 L 341.333,160 z M 384,202.667l-128,0 l0,170.667 l 128,0 L 384,202.667 z
		"  />
<glyph unicode="&#xe00d;" d="M 490.667,289.813c0,9.28-6.891,18.517-18.539,27.179l 13.397,40.725l-44.203,0 l-13.525-18.005c-11.52,5.099-29.163,10.261-49.131,14.699
		c-31.744,7.445-65.941,11.968-96.619,11.968c-82.645-0.021-124.075-29.803-131.371-62.229C 149.76,301.547, 149.333,298.069, 149.333,294.613
		c0-1.728, 0.107-3.477, 0.341-5.099c 1.515-18.133, 13.227-33.536, 34.112-44.757c 10.901-5.845, 24.128-10.411, 39.317-13.611
		c 15.573-3.349, 32.896-5.269, 51.029-5.44l 5.973-15.893l 58.923-0.171l 11.648,20.48c 11.925,1.493, 23.723,3.307, 35.051,5.419
		c 11.328,2.112, 22.208,4.544, 32.277,7.211c 0.085,0.021, 0.171,0.043, 0.235,0.064c 2.517,0.683, 7.232,2.005, 7.232,2.005l 14.805-19.733l 44.203,0 
		l-12.821,38.805C 483.029,271.104, 490.667,279.723, 490.667,289.813z M 419.605,265.323c0,0-0.107-0.021-0.128-0.043
		c-2.325-0.683-4.651-1.323-6.933-1.92c-18.837-4.992-41.109-9.173-64.427-12.075c-0.96-0.107-37.461-4.267-70.272-4.267l-3.307,0.021
		c-16.832,0.363-32.149,1.963-45.611,4.693c-13.675,2.837-25.771,6.848-35.051,11.819c-3.285,1.771-6.123,3.627-8.704,5.568
		c 0.277,0.427, 0.576,0.811, 0.832,1.259c 3.285-0.96, 6.4-1.984, 10.304-2.816c 20.245-4.288, 50.411-6.805, 82.731-6.933l 3.221,0c0,0,0,0,0,0
		c 30.933,0, 65.237,1.557, 65.6,1.579c 21.952,1.067, 42.944,2.624, 60.629,4.48l 6.805,0.747c 6.016,0.704, 12.032,1.579, 17.621,2.475
		c-4.352-1.664-8.853-3.243-13.269-4.565L 419.605,265.323z M 372.565,333.909c 13.461-3.115, 26.432-6.827, 38.528-10.965
		c-28.608,4.203-84.139,8.512-124.949,8.512c-33.856,0-72.917-2.283-99.136-10.432c 17.28,13.653, 48.512,24.043, 95.040,24.043
		C 309.355,345.045, 343.723,340.224, 372.565,333.909z M 191.744,300.288c 14.891,4.757, 43.52,9.792, 94.4,9.813c 43.115,0, 103.211-4.885, 128.149-9.237
		c 16.683-2.901, 28.096-5.333, 33.92-6.656c-7.317-1.387-21.653-3.989-35.328-5.589l-6.592-0.725c-17.323-1.813-37.888-3.328-59.435-4.395
		c-0.341-0.021-34.155-1.557-64.597-1.557l0,0 l-3.136,0c-30.933,0.107-59.52,2.475-78.4,6.464c-3.541,0.747-6.443,1.493-8.981,2.24
		C 191.851,292.267, 192,293.867, 192,295.531C 192,297.173, 191.851,298.731, 191.744,300.288z"  />
<glyph unicode="&#xe00e;" d="M 234.667,309.312L 405.376,309.312L 405.376,266.667L 234.667,266.667z"  />
<glyph unicode="&#xe00f;" d="M 405.333,288l0,42.667 c0,5.909-4.757,10.667-10.667,10.667c-5.867,0-10.667-4.757-10.667-10.667l0-42.667 c0-35.285-28.715-64-64-64c-35.285,0-64,28.715-64,64l0,42.667 
			c0,5.909-4.757,10.667-10.667,10.667c-5.867,0-10.667-4.757-10.667-10.667l0-42.667 c0-39.616, 27.307-72.747, 64-82.283l0-28.245 c-20.885-6.677-42.667-21.504-42.667-38.784l 128,0 
			c0,17.301-21.76,32.107-42.667,38.784l0,28.245 C 378.048,215.253, 405.333,248.384, 405.333,288zM 320,245.333c 23.573,0, 42.667,19.115, 42.667,42.667l0,106.667 c0,23.595-19.093,42.667-42.667,42.667c-23.552,0-42.667-19.072-42.667-42.667l0-106.667 C 277.333,264.448, 296.469,245.333, 320,245.333z"  />
<glyph unicode="&#xe010;" d="M 144.341,448.619l0-213.333 l 192.021,0 l-85.355-128l 170.688,128l 64,0 l0,213.333 L 144.341,448.619 z M 379.029,299.285L 187.008,299.285 l0,21.333 l 192.021,0 L 379.029,299.285 z M 443.029,363.285L 187.008,363.285 l0,21.333 
		l 256.021,0 L 443.029,363.285 z"  />
<glyph unicode="&#xe011;" d="M 373.717,230.293l-0.085,0 l-8.213,37.739c 15.787,10.624, 26.133,17.365, 26.133,44.373c0,2.496, 0.341,7.125, 0.789,12.544
			c 0.661-0.384, 1.301-0.96, 2.048-1.045c 5.717-0.491, 11.2,8.427, 12.203,19.883c 1.003,11.499-2.837,21.205-8.533,21.717
			c-0.704,0.085-1.323-0.427-2.005-0.576c 1.088,11.627, 1.963,21.76, 1.963,26.133c0,48.043-31.168,67.627-77.632,67.627
			c-46.549,0-77.675-19.584-77.675-67.627c0-4.373, 0.875-14.507, 1.963-26.133c-0.661,0.171-1.301,0.661-1.963,0.576
			c-5.717-0.491-9.536-10.219-8.533-21.717c 1.003-11.456, 6.464-20.373, 12.203-19.883c 0.747,0.085, 1.365,0.661, 2.048,1.045
			c 0.469-5.419, 0.747-10.048, 0.747-12.544c0-27.008, 10.325-33.792, 26.133-44.373l-8.256-37.739C 128,202.667, 128,152.171, 128,117.333l 384,0 
			C 512,152.171, 512,202.667, 373.717,230.293z"  />
<glyph unicode="&#xe012;" d="M 149.333,416l0-256 l 341.333,0 L 490.667,416 L 149.333,416 z M 407.787,373.333l-87.659-87.168L 233.536,373.333L 407.787,373.333 z M 192,202.667l0,151.957 l 127.915-128.789L 448,353.131L 448,202.667 L 192,202.667 z"  />
<glyph unicode="&#xe013;" d="M 298.88,224.021L 298.667,224.021 L 298.667,224 c-35.285,0-64,28.715-64,64s 28.715,64, 64,64l 85.333,0 L 384,416 l-85.333,0 c-70.656,0-128-57.301-128-128c0-70.699, 57.344-128, 128-128l 85.333,0 l0,64.021 L 298.88,224.021 zM 405.333,416L 405.333,352L 409.408,352L 469.333,352L 469.333,416 		zM 405.333,224.021L 405.333,160L 469.333,160L 469.333,224.021L 409.408,224.021 		z"  />
<glyph unicode="&#xe014;" d="M 128,394.667l0-213.333 l 384,0 L 512,394.667 L 128,394.667 z M 490.667,202.667L 149.333,202.667 l0,170.667 l 64,0 l0-21.312 l 213.333,0 L 426.667,373.333 l 64,0 L 490.667,202.667 zM 256,245.355L 384,245.355L 384,224.021L 256,224.021zM 405.333,245.333L 426.667,245.333L 426.667,224L 405.333,224zM 448,245.333L 469.333,245.333L 469.333,224L 448,224zM 213.333,245.333L 234.667,245.333L 234.667,224L 213.333,224zM 170.667,245.333L 192,245.333L 192,224L 170.667,224zM 213.333,288L 234.667,288L 234.667,266.667L 213.333,266.667zM 256,288L 277.333,288L 277.333,266.667L 256,266.667zM 298.667,288L 320,288L 320,266.667L 298.667,266.667zM 341.333,288L 362.667,288L 362.667,266.667L 341.333,266.667zM 384,288L 405.333,288L 405.333,266.667L 384,266.667zM 426.667,288L 469.333,288L 469.333,266.667L 426.667,266.667zM 170.667,288L 192,288L 192,266.667L 170.667,266.667zM 213.333,330.667L 234.667,330.667L 234.667,309.333L 213.333,309.333zM 256,330.667L 277.333,330.667L 277.333,309.333L 256,309.333zM 298.667,330.667L 320,330.667L 320,309.333L 298.667,309.333zM 341.333,330.667L 362.667,330.667L 362.667,309.333L 341.333,309.333zM 384,330.667L 405.333,330.667L 405.333,309.333L 384,309.333zM 426.667,330.667L 469.333,330.667L 469.333,309.333L 426.667,309.333zM 170.667,330.667L 192,330.667L 192,309.333L 170.667,309.333z"  />
<glyph unicode="&#xe015;" d="M 426.816,373.333c-0.085,0-0.213,0-0.341,0c-74.539-0.213-122.261-70.507-124.245-73.493c-0.341-0.533-37.675-54.379-88.917-54.507
			c-37.12,0.085-42.667,26.773-42.667,42.667c0,15.915, 5.589,42.581, 42.709,42.667c 26.091-0.085, 48.405-13.867, 64.171-27.563c 4.331,4.971, 14.827,20.032, 27.115,32.939
			c-21.589,18.496-52.8,37.163-91.179,37.291l0,0c-0.085,0-0.213,0-0.341,0c-50.965-0.128-85.163-34.389-85.163-85.333
			c0-50.923, 34.197-85.163, 85.163-85.333c 0.128,0, 0.256,0, 0.341,0c 74.539,0.213, 122.261,70.507, 124.245,73.493c 0.363,0.533, 37.696,54.4, 88.917,54.507
			c 37.12-0.085, 42.667-26.752, 42.667-42.667s-5.547-42.581-42.667-42.645c-26.091,0.064-48.405,13.845-64.171,27.563c-4.331-4.949-14.827-20.032-27.136-32.939
			c 21.589-18.517, 52.8-37.163, 91.136-37.269L 426.453,202.667 l 0.341,0 c 50.965,0.171, 85.163,34.411, 85.163,85.333C 511.979,338.944, 477.781,373.205, 426.816,373.333z"  />
<glyph unicode="&#xe016;" d="M 469.333,294.464L 410.219,374.912L 265.92,230.635L 212.459,284.075L 170.667,220.992L 170.667,192L 469.333,192 			zM 182.699,350.635A32,32 180 1 1 246.699,350.635A32,32 180 1 1 182.699,350.635zM 106.667,448l0-320 l 426.667,0 l0,320 L 106.667,448 z M 512,149.333L 128,149.333 l0,277.333 l 384,0 L 512,149.333 z"  />
<glyph unicode="&#xe017;" d="M 320,416c-70.592,0-128-57.408-128-128l0-48 L 192,202.667 l0-10.667 c0-17.664, 14.336-32, 32-32c 17.664,0, 32,14.336, 32,32l0,48 
		c0,17.685-14.336,32-32,32c-3.755,0-7.296-0.768-10.667-1.963L 213.333,288 c0,58.795, 47.872,106.667, 106.667,106.667c 58.837,0, 106.667-47.872, 106.667-106.667l0-17.963 
		c-3.328,1.195-6.869,1.963-10.667,1.963c-17.664,0-32-14.315-32-32l0-48 c0-17.664, 14.336-32, 32-32s 32,14.336, 32,32L 448,202.667 l0,37.333 L 448,288 
		C 448,358.592, 390.613,416, 320,416z"  />
<glyph unicode="&#xe018;" d="M 170.667,394.667L 469.333,394.667L 469.333,352L 170.667,352zM 170.667,309.333L 469.333,309.333L 469.333,266.667L 170.667,266.667zM 170.667,224L 469.333,224L 469.333,181.333L 170.667,181.333z"  />
<glyph unicode="&#xe019;" d="M 362.56,309.333C 350.827,309.333, 341.333,299.755, 341.333,288C 341.333,276.181, 350.827,266.667, 362.56,266.667C 374.443,266.667, 384,276.181, 384,288
			C 384,299.755, 374.443,309.333, 362.56,309.333zM 277.227,309.333C 265.493,309.333, 256,299.755, 256,288C 256,276.181, 265.493,266.667, 277.227,266.667C 289.109,266.667, 298.667,276.181, 298.667,288
			C 298.667,299.755, 289.109,309.333, 277.227,309.333zM 427.328,323.157l 20.523,123.093c 0.747,4.437-1.408,8.896-5.355,11.093c-3.947,2.197-8.832,1.664-12.245-1.344L 336.853,373.333l-33.707,0 
			L 209.749,456C 206.336,458.987, 201.429,459.52, 197.504,457.344c-3.947-2.197-6.101-6.635-5.355-11.093l 20.523-123.093
			c-16.896-19.84-27.264-53.333-16.277-80.021c 7.232-17.621, 26.304-38.229, 74.133-40.107l 39.723-79.787c 0.384-0.789, 1.131-1.195, 1.685-1.835
			c 0.213-0.256, 0.427-0.491, 0.661-0.725c 0.853-0.832, 1.643-1.6, 2.709-2.091c 0.064-0.043, 0.107-0.107, 0.192-0.149
			c 0.683-0.341, 1.408-0.32, 2.112-0.491C 318.336,117.781, 318.997,117.333, 319.787,117.333l0,0l0,0c0,0,0,0,0,0c 0.064,0, 0.128,0.043, 0.213,0.043
			c 0.064,0, 0.128-0.043, 0.213-0.043c0,0,0,0,0,0l0,0l0,0c 0.768,0, 1.451,0.448, 2.197,0.619c 0.704,0.192, 1.429,0.149, 2.112,0.491
			c 0.064,0.043, 0.107,0.107, 0.192,0.149c 1.045,0.491, 1.856,1.259, 2.709,2.091c 0.235,0.235, 0.469,0.469, 0.661,0.725
			c 0.533,0.64, 1.28,1.045, 1.685,1.835l 39.723,79.787c 47.829,1.899, 66.88,22.507, 74.133,40.107C 454.592,269.824, 444.245,303.317, 427.328,323.157z
			 M 426.752,266.069C 426.709,266.411, 426.667,266.667, 426.667,266.667l0-1.451 c-0.021-0.725-0.128-1.429-0.192-2.133C 425.003,256.981, 416.597,245.333, 373.333,245.333l0-0.107
			c-3.904-0.021-7.68-2.091-9.536-5.803l-1.728-3.477C 346.731,209.045, 341.035,181.333, 320,181.333c-21.035,0-26.731,27.712-42.048,54.613l-1.728,3.477
			c-1.856,3.733-5.632,5.803-9.536,5.803l0,0.107c-43.264,0-51.669,11.648-53.141,17.728c-0.064,0.725-0.171,1.408-0.192,2.133L 213.355,266.667 
			c0,0-0.043-0.235-0.085-0.597c-0.405,17.003, 7.573,35.797, 18.24,46.357c 0.213,0.213, 0.299,0.512, 0.491,0.725
			c 0.491,0.555, 0.853,1.152, 1.216,1.813c 0.32,0.597, 0.619,1.152, 0.811,1.792c 0.213,0.64, 0.299,1.28, 0.384,1.941
			c 0.064,0.533, 0.192,1.045, 0.192,1.579L 234.667,320c0,58.667, 16.213,66.944, 58.005,33.941l-0.427,0.427c 1.003-0.768, 2.112-1.365, 3.349-1.749
			c 0.235-0.085, 0.469-0.085, 0.704-0.149C 297.088,352.299, 297.835,352, 298.667,352l 42.667,0 c 0.853,0, 1.621,0.299, 2.411,0.491
			c 0.213,0.064, 0.448,0.064, 0.661,0.128c 1.237,0.384, 2.347,0.981, 3.349,1.749l-0.427-0.427C 389.12,386.944, 405.333,378.667, 405.333,320l 0.064,0.277
			c-0.021-0.533, 0.128-1.045, 0.192-1.579c 0.085-0.683, 0.192-1.323, 0.384-1.963c 0.213-0.619, 0.491-1.195, 0.811-1.771
			c 0.363-0.661, 0.725-1.259, 1.216-1.813c 0.192-0.235, 0.277-0.512, 0.491-0.725C 419.157,301.867, 427.157,283.072, 426.752,266.069z"  />
<glyph unicode="&#xe01a;" d="M 330.667,288A70.123,70.123 180 1 1 470.912,288A70.123,70.123 180 1 1 330.667,288zM 169.088,288A70.123,70.123 180 1 1 309.333,288A70.123,70.123 180 1 1 169.088,288z"  />
<glyph unicode="&#xe01b;" d="M 320,394.667c-64.832,0-122.539-41.749-160-106.667c 37.461-64.917, 95.168-106.667, 160-106.667c 64.789,0, 122.496,41.749, 160,106.667C 442.496,352.917, 384.789,394.667, 320,394.667z
				 M 320,213.333c-41.259,0-74.667,33.408-74.667,74.667s 33.408,74.667, 74.667,74.667s 74.667-33.408, 74.667-74.667S 361.259,213.333, 320,213.333zM 288,288A32,32 180 1 1 352,288A32,32 180 1 1 288,288z"  />
<glyph unicode="&#xe01c;" d="M 432.512,189.973c 2.667,3.051, 5.163,6.208, 7.552,9.472c 0.875,1.131, 1.749,2.219, 2.539,3.371C 459.413,227.008, 469.333,256.32, 469.333,288
		c0,59.115-34.411,110.037-84.245,134.251c-0.384,0.192-0.747,0.384-1.131,0.533c-4.544,2.176-9.259,4.096-14.037,5.803
		c-0.64,0.235-1.301,0.491-1.963,0.725c-4.843,1.621-9.792,3.051-14.827,4.181c-0.491,0.128-0.96,0.277-1.451,0.384
		c-5.589,1.216-11.285,2.155-17.131,2.709L 334.507,436.587 l0,0C 329.749,437.056, 324.928,437.333, 320,437.333c-72.789,0-133.376-52.117-146.581-121.109
		c-0.213-1.088-0.299-2.219-0.491-3.307c-0.576-3.435-1.173-6.891-1.493-10.411C 170.923,297.728, 170.667,292.885, 170.667,288
		c0-7.765, 0.789-15.339, 1.92-22.784c 0.213-1.344, 0.363-2.667, 0.619-4.011c 1.301-7.125, 3.072-14.080, 5.376-20.843
		c 0.384-1.152, 0.789-2.24, 1.216-3.392c 5.163-14.144, 12.373-27.243, 21.291-39.040c 0.448-0.576, 0.875-1.195, 1.323-1.771
		c 4.629-5.888, 9.664-11.435, 15.125-16.576c 0.299-0.299, 0.597-0.576, 0.96-0.875c 11.456-10.645, 24.533-19.499, 38.912-26.176
		c 0.043,0, 0.085-0.043, 0.171-0.064c 7.253-3.349, 14.827-6.144, 22.699-8.32c0,0, 0.043,0, 0.085-0.021l0,0C 292.992,140.672, 306.261,138.667, 320,138.667
		c 7.083,0, 13.952,0.661, 20.8,1.6l0,0c 0.021,0, 0.064,0.021, 0.128,0.021c 5.824,0.832, 11.499,1.984, 17.088,3.435
		c 0.171,0.043, 0.341,0.085, 0.533,0.149c 16.981,4.523, 32.832,11.904, 46.869,21.739c 0.128,0.085, 0.256,0.192, 0.384,0.299
		c 4.245,2.965, 8.256,6.144, 12.117,9.515c 0.96,0.811, 1.835,1.643, 2.709,2.475c 3.072,2.795, 5.995,5.696, 8.832,8.725
		C 430.464,187.755, 431.509,188.843, 432.512,189.973z M 448,288c0-25.536-7.595-49.28-20.501-69.269c-7.424,7.872-10.624,23.509-13.035,31.936
		c-2.091,7.317-11.627,25.472-7.253,32.491c 2.411,3.883, 9.835,3.264, 12.459,6.997c 2.24,3.179, 0.491,8.128, 1.003,12.16
		c 1.173,8.939, 11.968,25.024, 0.917,32.427c-3.627,2.453-8.832,0.043-12.544,2.304c-3.499,2.112-2.795,6.229-6.827,7.637
		c-2.837,1.003-11.669-1.152-16.085-0.299c-6.037,1.173-7.744,2.453-12.203,5.739c-11.157,8.213-13.419,12.373-7.659,26.56
		c 3.328,8.171, 9.408,15.701, 16.491,22.741C 421.632,377.472, 448,335.787, 448,288z M 297.877,162.048c 3.499,9.024-3.2,17.856-14.741,26.048
		c-8.448,6.016-13.824,6.251-14.379,17.451c-0.384,8.597-1.045,19.115, 1.088,27.328c 2.88,11.221, 5.461,13.013, 1.408,23.851
		c-3.627,9.621-2.923,14.293-14.208,16.789c-10.219,2.283-15.339,3.136-24.576-2.027c-15.467-8.597-19.648,1.877-27.2,13.696
		c-3.584,5.568-8.128,11.328-12.373,17.195C 200.043,366.208, 254.293,416, 320,416c 1.92,0, 3.755-0.213, 5.632-0.299
		c-0.128-0.32-0.299-0.683-0.384-1.003c-1.579-5.291-1.131-10.645-3.712-15.808c-2.944-5.867-8.277-10.005-10.219-16.619
		c-3.328-11.349-3.413-26.539-2.88-38.379c 0.363-7.595-0.917-23.829, 2.837-30.293c 3.093-5.355, 11.584-4.331, 12.416-11.904
		c 0.704-6.528-3.712-7.851-9.963-7.744c-9.344,0.171-20.203,7.552-25.749-2.731c-13.077-24.128, 14.869-30.763, 30.165-35.392
		c 15.083-4.544, 37.077-17.728, 43.008-33.749c 5.504-14.997-1.451-19.861-5.291-32.469c-2.496-8.277-2.539-17.152-4.715-25.6
		C 341.163,161.472, 330.795,160, 320,160C 312.448,160, 305.088,160.789, 297.877,162.048z"  />
<glyph unicode="&#xe01d;" d="M 487.189,322.368c-2.24,10.965-5.589,21.76-9.963,32.064c-4.288,10.112-9.579,19.883-15.744,28.992
	c-6.101,9.024-13.099,17.515-20.821,25.237c-7.723,7.723-16.213,14.72-25.237,20.821c-9.131,6.165-18.88,11.456-28.992,15.744
	c-10.304,4.352-21.099,7.701-32.064,9.963C 343.125,457.493, 331.563,458.667, 320,458.667c-11.563,0-23.125-1.173-34.368-3.477
	c-10.965-2.24-21.76-5.589-32.064-9.963c-10.112-4.288-19.883-9.579-28.992-15.744c-9.024-6.101-17.515-13.099-25.237-20.821
	c-7.723-7.723-14.72-16.213-20.821-25.237c-6.165-9.131-11.456-18.88-15.744-28.992c-4.352-10.304-7.701-21.099-9.963-32.064
	C 150.507,311.125, 149.333,299.563, 149.333,288c0-11.563, 1.173-23.125, 3.477-34.368c 2.24-10.965, 5.589-21.76, 9.963-32.064
	c 4.288-10.112, 9.579-19.883, 15.744-28.992c 6.101-9.024, 13.099-17.515, 20.821-25.237c 7.723-7.723, 16.213-14.72, 25.237-20.821
	c 9.131-6.165, 18.88-11.456, 28.992-15.744c 10.304-4.352, 21.099-7.701, 32.064-9.963C 296.875,118.507, 308.437,117.333, 320,117.333
	c 11.563,0, 23.125,1.173, 34.368,3.477c 10.965,2.24, 21.76,5.589, 32.064,9.963c 10.112,4.288, 19.883,9.579, 28.992,15.744
	c 9.024,6.101, 17.515,13.099, 25.237,20.821c 7.723,7.723, 14.72,16.213, 20.821,25.237c 6.165,9.131, 11.456,18.88, 15.744,28.992
	c 4.352,10.304, 7.701,21.099, 9.963,32.064C 489.493,264.875, 490.667,276.437, 490.667,288C 490.667,299.563, 489.493,311.125, 487.189,322.368z M 285.675,429.653
	l 0.64-0.64l 4.352,1.088l-0.32,0.64C 299.947,432.704, 309.845,433.749, 320,433.749c 36.907,0, 70.592-13.739, 96.277-36.373
	c-0.363-0.576-21.141-32.171-76.117-52.779c-24.917,45.781-52.288,82.133-54.485,85.035C 285.675,429.632, 285.675,429.632, 285.675,429.653z M 257.813,419.819
	c 1.941-2.603, 28.885-39.147, 54.123-83.989c-69.995-18.581-130.731-17.856-134.571-17.792C 186.837,363.179, 217.173,400.619, 257.813,419.819z M 211.605,190.592
	c-23.211,25.813-37.355,59.947-37.355,97.408c0,1.557, 0.064,3.072, 0.107,4.629c 2.581-0.064, 74.603-1.707, 149.632,20.757
	c 4.181-8.171, 8.171-16.469, 11.84-24.768c-1.92-0.533-3.84-1.131-5.739-1.728c-78.656-25.429-118.549-96.213-118.549-96.213
	S 211.584,190.613, 211.605,190.592z M 320,142.251c-34.645,0-66.475,12.117-91.477,32.32c-0.405,0.32-0.853,0.683-1.365,1.067
	c 0.448-0.363, 0.917-0.704, 1.365-1.067c 1.173-0.917, 1.899-1.472, 1.899-1.472s 27.947,60.928, 114.389,91.051
	c 0.32,0.107, 0.64,0.213, 0.96,0.32c 20.523-53.312, 28.971-97.941, 31.147-110.677C 359.424,146.368, 340.181,142.251, 320,142.251z M 401.451,167.125
	c-1.472,8.789-9.259,51.563-28.373,104.107c 47.040,7.531, 87.808-5.355, 90.816-6.336C 457.429,224.256, 434.176,189.205, 401.451,167.125z
	 M 364.203,294.229c-1.024,2.496-2.069,5.013-3.136,7.531c-3.029,7.125-6.293,14.187-9.685,21.141c 51.883,21.184, 76.011,50.731, 80.448,56.64
	l 2.709-3.328l 0.832,0.832c 18.773-24.277, 30.037-54.613, 30.357-87.573C 463.573,289.92, 414.251,300.523, 364.203,294.229z"  />
<glyph unicode="&#xe01e;" d="M 285.867,223.701L 320,257.877L 353.877,224.043L 384,254.165L 350.123,288L 384.299,322.133L 354.176,352.299L 320,318.123L 286.165,351.957L 256.043,321.835L 289.877,288L 255.744,253.845 		zM 447.829,416l-234.667,0 L 201.131,416 L 194.88,405.653l-64-106.603l-6.592-10.965l 6.592-10.987l 64-106.731L 201.088,160l 12.075,0 l 234.667,0 l 21.333,0 l0,21.333 L 469.163,394.667 L 469.163,416 L 447.829,416 z
			 M 447.829,181.333l-234.667,0 l-64,106.752l 64,106.581l 234.667,0 L 447.829,181.333 z"  />
<glyph unicode="&#xe01f;" d="M 487.189,178.923l-19.968,27.413c 1.771,1.899, 2.901,4.395, 2.901,7.211L 470.123,384 c0,5.888-4.779,10.667-10.667,10.667L 180.544,394.667 
		c-5.888,0-10.667-4.779-10.667-10.667l0-170.453 c0-2.795, 1.131-5.291, 2.88-7.211l-21.397-29.397c-2.368-3.243-2.688-7.552-0.896-11.115
		C 152.32,162.24, 155.989,160, 160,160l 320,0 c 0.149,0, 0.299,0, 0.427,0c 5.888,0, 10.667,4.779, 10.667,10.667C 491.093,173.995, 489.579,176.96, 487.189,178.923z
		 M 191.211,373.333l 257.557,0 l0-149.12 L 191.211,224.213 L 191.211,373.333 z"  />
<glyph unicode="&#xe020;" d="M 320,437.333c-82.496,0-149.333-66.859-149.333-149.333c0-82.475, 66.837-149.333, 149.333-149.333c 82.453,0, 149.333,66.859, 149.333,149.333C 469.333,370.475, 402.453,437.333, 320,437.333z M 392.832,182.891L 362.667,214.101
		l 11.925-41.707c-13.589-6.443-28.373-10.581-44.032-11.883L 320,202.667l-10.539-42.155c-15.659,1.301-30.507,5.44-44.053,11.883L 277.333,214.101l-30.165-31.211
		c-12.629,8.747-23.552,19.669-32.299,32.256L 246.080,245.333L 204.373,233.408c-6.421,13.589-10.581,28.416-11.84,44.075L 234.667,288l-42.133,10.517
		c 1.259,15.659, 5.419,30.507, 11.84,44.075L 246.080,330.667l-31.211,30.187c 8.747,12.587, 19.669,23.488, 32.299,32.256L 277.333,361.899l-11.925,41.707
		c 13.504,6.421, 28.288,10.56, 43.925,11.861l0-123.029 l-29.291-29.269c-4.16-4.16-4.16-10.923,0-15.083c 2.091-2.091, 4.843-3.115, 7.552-3.115
		c 2.752,0, 5.461,1.045, 7.531,3.115l 35.541,35.52L 330.667,415.467 c 15.616-1.301, 30.379-5.44, 43.925-11.861L 362.667,361.899l 30.165,31.211
		c 12.587-8.747, 23.531-19.669, 32.299-32.256l-31.253-30.208l 41.707,11.968c 6.464-13.589, 10.581-28.416, 11.883-44.075L 405.291,288l 42.155-10.517
		c-1.28-15.659-5.419-30.507-11.883-44.075L 393.877,245.333l 31.253-30.187C 416.384,202.56, 405.419,191.637, 392.832,182.891z"  />
<glyph unicode="&#xe021;" d="M 469.333,242.496L 419.627,192L 320,286.336L 220.416,192L 170.667,242.496L 320,384 	z"  />
<glyph unicode="&#xe022;" d="M 224.043,188.416L 318.379,288.043L 224.043,387.627L 274.539,437.376L 416.043,288.043L 274.539,138.709 	z"  />
<glyph unicode="&#xe023;" d="M 416,387.584L 321.664,288L 416,188.373L 365.504,138.667L 224,288L 365.504,437.333 	z"  />
<glyph unicode="&#xe024;" d="M 170.709,333.504L 220.416,384L 320.043,289.664L 419.627,384L 469.376,333.504L 320.043,192 	z"  />
<glyph unicode="&#xe025;" d="M 437.461,347.712L 407.339,377.877L 287.893,258.368L 232.683,313.536L 202.56,283.413L 287.893,198.123 	z"  />
<glyph unicode="&#xe026;" d="M 405.333,373.333l-21.333,64l-128,0 l-21.333-64L 192,373.333 l0,21.333 L 149.333,394.667 l0-21.333 L 128,373.333 l0-192 l 96.875,0 c 23.445-26.112, 57.344-42.667, 95.125-42.667c 37.781,0, 71.68,16.555, 95.125,42.667L 512,181.333 l0,192 L 405.333,373.333 z M 320,181.333
			c-47.061,0-85.333,38.272-85.333,85.333s 38.293,85.333, 85.333,85.333c 47.061,0, 85.333-38.293, 85.333-85.333S 367.061,181.333, 320,181.333zM 277.333,266.667A42.667,42.667 180 1 1 362.667,266.667A42.667,42.667 180 1 1 277.333,266.667z"  />
<glyph unicode="&#xe027;" d="M 426.667,160L 320,224L 213.333,160L 213.333,416L 426.667,416 		z"  />
<glyph unicode="&#xe028;" d="M 234.667,437.333L 192,394.645L 192,138.667L 405.333,138.667L 405.333,394.667L 234.667,394.667L 256,416L 426.667,416L 426.667,181.333L 448,181.333L 448,437.333 	z"  />
<glyph unicode="&#xe029;" d="M 437.333,224c-28.117,4.459-32,30.741-32,64l0,42.667 c0,39.915-27.541,73.173-64.533,82.496C 340.928,414.123, 341.333,414.997, 341.333,416
			c0,11.797-9.536,21.333-21.333,21.333c-11.755,0-21.333-9.536-21.333-21.333c0-1.003, 0.448-1.877, 0.576-2.837C 262.208,403.84, 234.667,370.581, 234.667,330.667l0-42.667 
			c0-33.259-3.883-59.541-32-64C 196.8,224, 192,219.2, 192,213.333C 192,207.424, 196.8,202.667, 202.667,202.667L 320,202.667 l 117.333,0 c 5.909,0, 10.667,4.757, 10.667,10.667
			C 448,219.2, 443.243,224, 437.333,224zM 320,138.667c 23.573,0, 42.667,19.093, 42.667,42.667l-85.333,0 C 277.333,157.76, 296.469,138.667, 320,138.667z"  />
<glyph unicode="&#xe02a;" d="M 394.667,234.667L 320,341.333L 245.333,234.667 	z"  />
<glyph unicode="&#xe02b;" d="M 266.667,362.667L 373.333,288L 266.667,213.333 	z"  />
<glyph unicode="&#xe02c;" d="M 373.333,362.709L 266.667,288.043L 373.333,213.397 	z"  />
<glyph unicode="&#xe02d;" d="M 394.667,341.376L 320,234.688L 245.333,341.376 	z"  />
<glyph unicode="&#x20;" horiz-adv-x="320" />
</font>
</defs>
</svg>
